<?xml version="1.0" encoding="utf-8"?>
<svg width="322" height="642" viewBox="0 0 322 642" xmlns="http://www.w3.org/2000/svg">
<rect id="frame" x="0" y="0" width="322" height="642" fill="#fff" stroke="none" stroke-width="0"/>

<!-- Association review -->
<g class="page_0_hC8jvKGh diagram_page" visibility="visible">
	<line x1="176" y1="337" x2="176" y2="194" stroke="#878787" stroke-width="2"/>
	<text x="181" y="253" fill="#b2182b" font-family="Verdana" font-size="12">0,N</text>
	<line x1="176" y1="68" x2="176" y2="194" stroke="#878787" stroke-width="2"/>
	<text x="181" y="144" fill="#b2182b" font-family="Verdana" font-size="12">0,N</text>
	<g>
		<path d="M208 152 a14 14 90 0 1 14 14 V177 h-92 V166 a14 14 90 0 1 14 -14" fill="#bababa" stroke="#bababa" stroke-width="0"/>
		<path d="M222 177 v45 a14 14 90 0 1 -14 14 H144 a14 14 90 0 1 -14 -14 V177 H92" fill="#e0e0e0" stroke="#e0e0e0" stroke-width="0"/>
		<rect x="130" y="152" width="92" height="84" fill="none" rx="14" stroke="#878787" stroke-width="2"/>
		<line x1="130" y1="177" x2="222" y2="177" stroke="#878787" stroke-width="1"/>
		<text x="156" y="169.75" fill="#000" font-family="Verdana" font-size="12">review</text>
		<text x="137" y="194.8" fill="#000" font-family="Verdana" font-size="12">content</text>
		<text x="137" y="211.8" fill="#000" font-family="Verdana" font-size="12">rating</text>
		<text x="137" y="228.8" fill="#000" font-family="Verdana" font-size="12">published_at</text>
	</g>
</g>

<!-- Association plays -->
<g class="page_0_hC8jvKGh diagram_page" visibility="visible">
	<line x1="54" y1="194" x2="54" y2="337" stroke="#878787" stroke-width="2"/>
	<text x="59" y="253" fill="#b2182b" font-family="Verdana" font-size="12">0,N</text>
	<line x1="176" y1="337" x2="54" y2="337" stroke="#878787" stroke-width="2"/>
	<text x="104" y="354" fill="#b2182b" font-family="Verdana" font-size="12">0,N</text>
	<g>
		<path d="M85 303 a14 14 90 0 1 14 14 V328 h-90 V317 a14 14 90 0 1 14 -14" fill="#bababa" stroke="#bababa" stroke-width="0"/>
		<path d="M99 328 v29 a14 14 90 0 1 -14 14 H23 a14 14 90 0 1 -14 -14 V328 H90" fill="#e0e0e0" stroke="#e0e0e0" stroke-width="0"/>
		<rect x="9" y="303" width="90" height="68" fill="none" rx="14" stroke="#878787" stroke-width="2"/>
		<line x1="9" y1="328" x2="99" y2="328" stroke="#878787" stroke-width="1"/>
		<text x="38" y="320.75" fill="#000" font-family="Verdana" font-size="12">plays</text>
		<text x="16" y="345.8" fill="#000" font-family="Verdana" font-size="12">role</text>
		<text x="16" y="362.8" fill="#000" font-family="Verdana" font-size="12">credit_order</text>
	</g>
</g>

<!-- Association belong -->
<g class="page_0_hC8jvKGh diagram_page" visibility="visible">
	<line x1="176" y1="337" x2="281" y2="337" stroke="#878787" stroke-width="2"/>
	<text x="226" y="354" fill="#b2182b" font-family="Verdana" font-size="12">0,N</text>
	<line x1="281" y1="472" x2="281" y2="337" stroke="#878787" stroke-width="2"/>
	<text x="286" y="430" fill="#b2182b" font-family="Verdana" font-size="12">0,N</text>
	<g>
		<path d="M295 312 a14 14 90 0 1 14 14 V337 h-56 V326 a14 14 90 0 1 14 -14" fill="#bababa" stroke="#bababa" stroke-width="0"/>
		<path d="M309 337 v11 a14 14 90 0 1 -14 14 H267 a14 14 90 0 1 -14 -14 V337 H56" fill="#e0e0e0" stroke="#e0e0e0" stroke-width="0"/>
		<rect x="253" y="312" width="56" height="50" fill="none" rx="14" stroke="#878787" stroke-width="2"/>
		<line x1="253" y1="337" x2="309" y2="337" stroke="#878787" stroke-width="1"/>
		<text x="261" y="329.75" fill="#000" font-family="Verdana" font-size="12">belong</text>
	</g>
</g>

<!-- Association has -->
<g class="page_0_hC8jvKGh diagram_page" visibility="visible">
	<line x1="176" y1="337" x2="176" y2="472" stroke="#878787" stroke-width="2"/>
	<text x="181" y="430" fill="#b2182b" font-family="Verdana" font-size="12">0,N</text>
	<line x1="176" y1="582" x2="176" y2="472" stroke="#878787" stroke-width="2"/>
	<text x="181" y="523" fill="#b2182b" font-family="Verdana" font-size="12">1,1</text>
	<g>
		<path d="M180 447 a14 14 90 0 1 14 14 V472 h-36 V461 a14 14 90 0 1 14 -14" fill="#bababa" stroke="#bababa" stroke-width="0"/>
		<path d="M194 472 v11 a14 14 90 0 1 -14 14 H172 a14 14 90 0 1 -14 -14 V472 H36" fill="#e0e0e0" stroke="#e0e0e0" stroke-width="0"/>
		<rect x="158" y="447" width="36" height="50" fill="none" rx="14" stroke="#878787" stroke-width="2"/>
		<line x1="158" y1="472" x2="194" y2="472" stroke="#878787" stroke-width="1"/>
		<text x="165" y="464.75" fill="#000" font-family="Verdana" font-size="12">has</text>
	</g>
</g>

<!-- Entity user -->
<g class="page_0_hC8jvKGh diagram_page" visibility="visible">
	<g>
		<rect x="142" y="9" width="68" height="25" fill="#f4a582" stroke="#f4a582" stroke-width="0" opacity="1"/>
		<rect x="142" y="34" width="68" height="93" fill="#fddbc7" stroke="#fddbc7" stroke-width="0" opacity="1"/>
		<rect x="142" y="9" width="68" height="118" fill="none" stroke="#d6604d" stroke-width="2" opacity="1"/>
		<line x1="142" y1="34" x2="210" y2="34" stroke="#d6604d" stroke-width="1"/>
	</g>
	<text x="163" y="26.75" fill="#000" font-family="Verdana" font-size="12">user</text>
	<text x="147" y="51.8" fill="#000" font-family="Verdana" font-size="12">id_user</text>
	<line x1="147" y1="54" x2="193" y2="54" stroke="#000" stroke-width="1"/>
	<text x="147" y="68.8" fill="#000" font-family="Verdana" font-size="12">email</text>
	<text x="147" y="85.8" fill="#000" font-family="Verdana" font-size="12">password</text>
	<text x="147" y="102.8" fill="#000" font-family="Verdana" font-size="12">pseudo</text>
	<text x="147" y="119.8" fill="#000" font-family="Verdana" font-size="12">role</text>
</g>

<!-- Entity actor -->
<g class="page_0_hC8jvKGh diagram_page" visibility="visible">
	<g>
		<rect x="22" y="152" width="64" height="25" fill="#f4a582" stroke="#f4a582" stroke-width="0" opacity="1"/>
		<rect x="22" y="177" width="64" height="59" fill="#fddbc7" stroke="#fddbc7" stroke-width="0" opacity="1"/>
		<rect x="22" y="152" width="64" height="84" fill="none" stroke="#d6604d" stroke-width="2" opacity="1"/>
		<line x1="22" y1="177" x2="86" y2="177" stroke="#d6604d" stroke-width="1"/>
	</g>
	<text x="38" y="169.75" fill="#000" font-family="Verdana" font-size="12">actor</text>
	<text x="27" y="194.8" fill="#000" font-family="Verdana" font-size="12">id_actor</text>
	<line x1="27" y1="197" x2="77" y2="197" stroke="#000" stroke-width="1"/>
	<text x="27" y="211.8" fill="#000" font-family="Verdana" font-size="12">name</text>
	<text x="27" y="228.8" fill="#000" font-family="Verdana" font-size="12">surname</text>
</g>

<!-- Entity movie -->
<g class="page_0_hC8jvKGh diagram_page" visibility="visible">
	<g>
		<rect x="131" y="261" width="90" height="25" fill="#f4a582" stroke="#f4a582" stroke-width="0" opacity="1"/>
		<rect x="131" y="286" width="90" height="127" fill="#fddbc7" stroke="#fddbc7" stroke-width="0" opacity="1"/>
		<rect x="131" y="261" width="90" height="152" fill="none" stroke="#d6604d" stroke-width="2" opacity="1"/>
		<line x1="131" y1="286" x2="221" y2="286" stroke="#d6604d" stroke-width="1"/>
	</g>
	<text x="157" y="278.75" fill="#000" font-family="Verdana" font-size="12">movie</text>
	<text x="136" y="303.8" fill="#000" font-family="Verdana" font-size="12">id_movie</text>
	<line x1="136" y1="306" x2="192" y2="306" stroke="#000" stroke-width="1"/>
	<text x="136" y="320.8" fill="#000" font-family="Verdana" font-size="12">title</text>
	<text x="136" y="337.8" fill="#000" font-family="Verdana" font-size="12">release_date</text>
	<text x="136" y="354.8" fill="#000" font-family="Verdana" font-size="12">summary</text>
	<text x="136" y="371.8" fill="#000" font-family="Verdana" font-size="12">synopsis</text>
	<text x="136" y="388.8" fill="#000" font-family="Verdana" font-size="12">poster</text>
	<text x="136" y="405.8" fill="#000" font-family="Verdana" font-size="12">duration</text>
</g>

<!-- Entity genre -->
<g class="page_0_hC8jvKGh diagram_page" visibility="visible">
	<g>
		<rect x="249" y="438" width="64" height="25" fill="#f4a582" stroke="#f4a582" stroke-width="0" opacity="1"/>
		<rect x="249" y="463" width="64" height="43" fill="#fddbc7" stroke="#fddbc7" stroke-width="0" opacity="1"/>
		<rect x="249" y="438" width="64" height="68" fill="none" stroke="#d6604d" stroke-width="2" opacity="1"/>
		<line x1="249" y1="463" x2="313" y2="463" stroke="#d6604d" stroke-width="1"/>
	</g>
	<text x="263" y="455.75" fill="#000" font-family="Verdana" font-size="12">genre</text>
	<text x="254" y="480.8" fill="#000" font-family="Verdana" font-size="12">id_genre</text>
	<line x1="254" y1="483" x2="308" y2="483" stroke="#000" stroke-width="1"/>
	<text x="254" y="497.8" fill="#000" font-family="Verdana" font-size="12">name</text>
</g>

<!-- Entity season -->
<g class="page_0_hC8jvKGh diagram_page" visibility="visible">
	<g>
		<rect x="117" y="531" width="118" height="25" fill="#f4a582" stroke="#f4a582" stroke-width="0" opacity="1"/>
		<rect x="117" y="556" width="118" height="77" fill="#fddbc7" stroke="#fddbc7" stroke-width="0" opacity="1"/>
		<rect x="117" y="531" width="118" height="102" fill="none" stroke="#d6604d" stroke-width="2" opacity="1"/>
		<line x1="117" y1="556" x2="235" y2="556" stroke="#d6604d" stroke-width="1"/>
	</g>
	<text x="155" y="548.75" fill="#000" font-family="Verdana" font-size="12">season</text>
	<text x="122" y="573.8" fill="#000" font-family="Verdana" font-size="12">id_season</text>
	<line x1="122" y1="576" x2="183" y2="576" stroke="#000" stroke-width="1"/>
	<text x="122" y="590.8" fill="#000" font-family="Verdana" font-size="12">number_episodes</text>
	<text x="122" y="607.8" fill="#000" font-family="Verdana" font-size="12">number_season</text>
	<text x="122" y="624.8" fill="#000" font-family="Verdana" font-size="12">release_date</text>
</g>
</svg>